<svg width="262" height="55" viewBox="0 0 262 55" fill="none" xmlns="http://www.w3.org/2000/svg">
<path d="M43.776 3.52236V49.9864H36.928V29.9544H13.376V49.9864H6.528V3.52236H13.376V23.4264H36.928V3.52236H43.776ZM53.0645 36.2904C53.0645 33.6024 53.7045 31.1917 54.9845 29.0584C56.2645 26.8824 58.0352 25.1757 60.2965 23.9384C62.5578 22.701 65.1392 22.0824 68.0405 22.0824C70.9845 22.0824 73.5658 22.701 75.7845 23.9384C78.0032 25.1757 79.7098 26.8824 80.9045 29.0584C82.1418 31.1917 82.7605 33.6024 82.7605 36.2904C82.7605 38.9784 82.1418 41.4104 80.9045 43.5864C79.7098 45.7624 78.0032 47.4904 75.7845 48.7704C73.5658 50.0077 70.9632 50.6264 67.9765 50.6264C65.1178 50.6264 62.5578 50.0504 60.2965 48.8984C58.0778 47.7464 56.3072 46.1037 54.9845 43.9704C53.7045 41.7944 53.0645 39.2344 53.0645 36.2904ZM59.7205 36.3544C59.7205 38.0184 60.0832 39.533 60.8085 40.8984C61.5338 42.221 62.5152 43.2877 63.7525 44.0984C64.9898 44.8664 66.3765 45.2504 67.9125 45.2504C69.4912 45.2504 70.8992 44.8664 72.1365 44.0984C73.3738 43.2877 74.3338 42.221 75.0165 40.8984C75.7418 39.533 76.1045 38.0184 76.1045 36.3544C76.1045 34.6904 75.7418 33.197 75.0165 31.8744C74.3338 30.5517 73.3738 29.485 72.1365 28.6744C70.8992 27.8637 69.4912 27.4584 67.9125 27.4584C66.3338 27.4584 64.9258 27.8637 63.6885 28.6744C62.4512 29.485 61.4698 30.573 60.7445 31.9384C60.0618 33.261 59.7205 34.733 59.7205 36.3544ZM90.556 0.258358H97.148V49.9864H90.556V0.258358ZM107.181 23.1704H113.773V49.9864H107.181V23.1704ZM106.797 13.5704C106.797 12.5464 107.202 11.693 108.013 11.0104C108.824 10.3277 109.698 9.98636 110.637 9.98636C111.618 9.98636 112.493 10.3277 113.261 11.0104C114.029 11.693 114.413 12.5464 114.413 13.5704C114.413 14.5944 114.029 15.4477 113.261 16.1304C112.493 16.7704 111.618 17.0904 110.637 17.0904C109.698 17.0904 108.824 16.7704 108.013 16.1304C107.202 15.4477 106.797 14.5944 106.797 13.5704ZM134.75 50.6264C132.233 50.6264 129.971 50.0504 127.966 48.8984C125.961 47.7037 124.382 46.0184 123.23 43.8424C122.078 41.6664 121.502 39.1277 121.502 36.2264C121.502 33.2397 122.121 30.701 123.358 28.6104C124.595 26.477 126.259 24.8557 128.35 23.7464C130.483 22.5944 132.873 22.0184 135.518 22.0184C137.566 22.0184 139.507 22.445 141.342 23.2984C143.219 24.109 144.67 25.261 145.694 26.7544L145.502 28.9944V0.258358H152.03V49.9864H145.438V43.6504L146.142 45.3784C144.819 46.8717 143.198 48.1304 141.278 49.1544C139.358 50.1357 137.182 50.6264 134.75 50.6264ZM136.798 45.0584C138.291 45.0584 139.614 44.8024 140.766 44.2904C141.918 43.7784 142.899 43.053 143.71 42.1144C144.521 41.133 145.097 40.0024 145.438 38.7224V33.3464C145.139 32.1517 144.563 31.1064 143.71 30.2104C142.899 29.2717 141.897 28.5464 140.702 28.0344C139.507 27.5224 138.206 27.2664 136.798 27.2664C135.219 27.2664 133.769 27.6504 132.446 28.4184C131.166 29.1437 130.121 30.1677 129.31 31.4904C128.542 32.813 128.158 34.349 128.158 36.0984C128.158 37.7624 128.542 39.277 129.31 40.6424C130.121 42.0077 131.187 43.0957 132.51 43.9064C133.833 44.6744 135.262 45.0584 136.798 45.0584ZM173.319 50.6264C170.801 50.6264 168.519 50.1144 166.47 49.0904C164.423 48.0237 162.801 46.445 161.607 44.3544C160.412 42.2637 159.815 39.6824 159.815 36.6104C159.815 33.581 160.433 30.9784 161.671 28.8024C162.951 26.6264 164.615 24.9624 166.663 23.8104C168.753 22.6157 171.015 22.0184 173.447 22.0184C176.007 22.0184 178.097 22.573 179.719 23.6824C181.383 24.749 182.684 26.0077 183.623 27.4584L183.175 28.4824L183.815 23.1704H189.895V49.9864H183.303V43.2664L184.007 44.8664C183.836 45.2077 183.473 45.6984 182.919 46.3384C182.364 46.9357 181.617 47.5757 180.679 48.2584C179.783 48.941 178.716 49.517 177.479 49.9864C176.284 50.413 174.897 50.6264 173.319 50.6264ZM175.111 45.2504C176.519 45.2504 177.777 44.9944 178.887 44.4824C179.996 43.9704 180.935 43.245 181.703 42.3064C182.471 41.3677 183.004 40.2584 183.303 38.9784V33.4104C182.961 32.2157 182.385 31.1917 181.575 30.3384C180.764 29.4424 179.783 28.7384 178.631 28.2264C177.521 27.7144 176.284 27.4584 174.919 27.4584C173.383 27.4584 171.975 27.8424 170.695 28.6104C169.415 29.3357 168.391 30.3597 167.623 31.6824C166.855 33.005 166.47 34.541 166.47 36.2904C166.47 37.9544 166.855 39.469 167.623 40.8344C168.433 42.1997 169.5 43.2877 170.823 44.0984C172.145 44.8664 173.575 45.2504 175.111 45.2504ZM202.874 28.5464C201.508 28.5464 200.335 28.1197 199.354 27.2664C198.372 26.3704 197.882 25.0904 197.882 23.4264V20.6104H202.81V21.5064C202.81 22.2317 202.98 22.701 203.322 22.9144C203.663 23.085 204.218 23.1704 204.986 23.1704H222.138L206.33 45.9544L205.05 44.6104H221.882V49.9864H196.602L212.794 26.6904L213.818 28.5464H202.874Z" fill="#0060A1"/>
<path d="M248.652 49.2533C245.75 50.3826 243.048 50.7928 240.547 50.4839C238.031 50.1352 235.829 49.1834 233.942 47.6284C232.04 46.0336 230.586 43.9439 229.58 41.3593C228.621 38.894 228.371 36.4275 228.83 33.9597C229.314 31.4368 230.377 29.1689 232.02 27.156C233.704 25.1278 235.837 23.6108 238.422 22.6053C241.762 21.3058 244.905 21.2048 247.85 22.3023C250.835 23.3844 253.385 25.528 255.502 28.7332L237.902 43.6844L235.078 40.6626L249.087 28.4823L248.136 29.745C247.179 28.698 246.006 27.9184 244.616 27.406C243.211 26.8539 241.614 26.926 239.825 27.6221C238.393 28.1791 237.24 29.0397 236.365 30.2041C235.515 31.3132 234.992 32.6156 234.795 34.1113C234.623 35.5517 234.854 37.0871 235.488 38.7174C236.138 40.3874 237.049 41.7272 238.22 42.7366C239.415 43.6908 240.748 44.2937 242.22 44.5453C243.731 44.7815 245.242 44.6056 246.753 44.0178C247.826 43.6001 248.763 43.0068 249.563 42.2378C250.402 41.4534 251.143 40.5929 251.786 39.6561L256.353 43.0984C255.365 44.444 254.197 45.6769 252.847 46.7971C251.522 47.8622 250.124 48.6809 248.652 49.2533Z" fill="#0060A1"/>
</svg>
